<?xml version="1.0" encoding="utf-8"?>
<!-- Generator: Adobe Illustrator 18.0.0, SVG Export Plug-In . SVG Version: 6.00 Build 0)  -->
<!DOCTYPE svg PUBLIC "-//W3C//DTD SVG 1.1//EN" "http://www.w3.org/Graphics/SVG/1.1/DTD/svg11.dtd">
<svg version="1.1" id="Layer_1" xmlns="http://www.w3.org/2000/svg" xmlns:xlink="http://www.w3.org/1999/xlink" x="0px" y="0px"
	 viewBox="0 0 841.9 595.3" enable-background="new 0 0 841.9 595.3" xml:space="preserve">
<g>
	<path fill="#414042" d="M497.7,357.2c-1.3-5.2-3.2-10.2-5.4-15c-1.4-3.1-3.5-10.3-7.2-11.4c-1.1-0.3-2.1,0.2-3,0.7
		c-2.9,1.8-5.6,3.8-8.6,5.5c-5.6,3.2-11.5,5.6-17.7,7.5c-13.7-3.4-23.8-13.3-34-22.5c-0.1-0.1-0.2-0.2-0.3-0.3
		c0.4-0.6,0.5-1.4,0.1-2.2c-3.5-8.2-6.2-16.6-8.3-25.2c1.1-0.1,2.2-0.2,3.3-0.3c0,0,0,0,0.1,0.1c10.1,7.9,22.7,11,35.2,8.2
		c0,0.1,0.1,0.1,0.1,0.2c1.6,3.7,5.5,4.2,8.7,2.4c7.7-4.3,1.3-17.7-2.7-23.9c0.1-0.6,0.2-1.2,0.3-1.8c2.7,0.2,5.6-1.3,6.3-4.2
		c1.6-6.1-2.5-13-5.8-18.4c0-1.1-0.1-2.2-0.1-3.3c-0.2-5.6-2.7-7.9-7.7-10c-13-5.3-28.8-5.3-42.6-6.3c-30.5-2.2-61.2-1.6-91.1,5
		c-5.5,1.2-8.4,3-9.3,8.8c-0.1,0.5-0.1,1-0.2,1.5c-5.6,4.5-12.9,11.2-11.2,19c0.9,3.9,4.7,6.8,8.2,6.5c0.1,2.4,0.7,4.4,2.4,6
		c-2.3,4.5-4,9.2-4.8,14.2c-0.5,2.8-1.4,8.6,2.7,9.5c3.4,0.8,5.9-0.6,7.8-3c11.4-0.8,23.4-2.5,30.7-11.9c1.8,0.2,3.7,0.4,5.5,0.6
		c-1.6,9-3.5,18.2-6.9,26.7c-8.5,6.7-17.1,14.2-26.8,18.8c-0.1-0.1-0.3-0.2-0.4-0.2c-3.8-1.7-7.6-3.4-11.5-5.1
		c-2.5-1.1-5.9-3.5-8.7-3.6c-4.4-0.1-8.4,5.7-11.4,8.9c-3,0.5-4.9,3-5.9,5.9c-0.5,1.4-0.9,3.3-0.6,4.9c-1.6,2.5-2.8,5.2-3.7,8.1
		c-0.4,1.4,0.4,2.4,1.4,2.8c13.1,14.3,28.4,26.4,45.4,35.8c8.6,4.8,17.7,8.8,27.4,10.9c6.2,1.4,15.3,3.3,18.6-3.5c0,0,0,0,0,0
		c4.3-6.6,7.5-13.6,10.3-21c1.1-3,2.5-5,0.5-7.7c-2.2-3-4.7-5.9-7.3-8.7c-9-9.8-20.1-17.6-32.2-23.1c12.1-9.1,22.3-21.5,36.7-26.8
		c0.3,1.3,0.6,2.6,0.8,3.9c0.2,1.3,1.8,1.9,3,1.7c-0.4,0.1,0.6,0,1.1-0.1c0.9,0,1.8-0.1,2.7-0.1c1,0,1.9,0,2.9,0
		c0.4,0,0.7,0,1.1,0.1c1.4,1.1,3.7-0.3,3.8-2.1c0.1-1,0.3-1.9,0.5-2.8c16.9,5.2,26,20.4,38.1,32.4c-6.4,4.7-12.9,9.4-19.3,14.1
		c-3.6,2.6-7.2,5.3-10.9,7.9c-1.8,1.3-4.2,2.7-4.5,5.1c-0.7,5.4,2.5,12.2,4.9,16.9c2.4,4.9,6.1,9,10.7,11.8c0.5,0.9,1.4,1.6,2.7,1.4
		c17.8-3.1,34.9-10.8,51.2-18.4c13.9-6.5,27.2-15.1,34.5-29c0-0.1,0.1-0.1,0.1-0.2C497.8,358.4,497.9,357.8,497.7,357.2z
		 M492.3,355.8c-5.2-0.9-10.4-1.8-15.5-3c4.3-1.6,8.8-2.6,13.5-2.7c0,0,0.1,0,0.1,0C491.1,352,491.7,353.9,492.3,355.8z
		 M488.6,347.3c-5.8,0.3-11.4,2-16.6,4.4c-0.1,0-0.2,0.1-0.2,0.1c-1.5,0.7-3,1.5-4.5,2.4c0.4-1.7,0.2-3.6-0.6-5.5
		c1-0.3,1.9-0.6,2.9-1C473.8,345.8,486.2,339.6,488.6,347.3z M481.6,337.6c0.7-0.5,1.4-0.9,2-1.4c0.1,0.2,0.3,0.4,0.6,0.7
		c0.9,1.6,1.7,3.2,2.5,4.9c-1.2-0.6-2.6-1-4-1.1c-3.1-0.2-5.9,0.5-8.7,1.8c-1.9,0.8-3.7,1.6-5.4,2.3
		C473.1,342.7,477.4,340.3,481.6,337.6z M415,315.9c-1.6-1.4-3.1-2.7-4.7-4c-1.4-5.8-2.6-11.6-4-17.4c0.7,0,1.4-0.1,2.2-0.1
		C410.1,301.8,412.3,308.9,415,315.9z M376,261.2c-0.9,0-1.3,0.7-1.4,1.4c-0.5,4.3-0.9,8.5-1.2,12.8c-21,0.4-42.1,1.8-63,4.2
		c-1.3-1.9-0.9-4.5-0.5-7.5c0.5-3.8,1-7.6,1.4-11.3c0.3-2,0.5-4,0.8-6.1c0,0,0,0,0,0c1.1-0.9,1-2,0.3-2.9c0.1-0.4,0.1-0.8,0.2-1.2
		c0.1-0.6,0.3-1.2,0.6-1.6c8.2,4.7,17.6,6.2,26.9,7.2c13,1.4,26,2.2,39.1,2.4c24.9,0.4,49.8-1.5,74.4-5.5c0.1,0.4,0.1,0.9,0.2,1.4
		c-0.6,0.7-0.9,1.7-0.3,2.7c0.1,0.2,0.3,0.5,0.4,0.7c0.1,2.6,0,5.1,0,7.7c0,3-0.2,6-0.3,8.9c-0.1,1.4-0.2,2.7-0.3,4.1
		c-0.2,0.1-0.4,0.3-0.5,0.4c-20.4-2.2-40.9-3.5-61.4-3.8c0.2-4.5,0.4-8.9,0.5-13.4c0-0.8-0.7-1.4-1.4-1.4
		C385.7,260.5,380.8,261.1,376,261.2z M358.9,362.5c-1.3,3.3-2.8,6.9-4.8,9.8c-1.7-2.2-3.6-4.4-5.5-6.5c2.4-2,4.2-4.6,5.2-7.5
		C355.6,359.7,357.3,361.1,358.9,362.5z M346.6,363.8c-1.6-1.6-3.3-3.2-5-4.7c-0.1-0.5-0.4-0.9-1-1c0,0-0.1,0-0.1,0
		c-4.1-3.6-8.4-7-12.7-10.1c1.4-0.6,2.7-1.3,4-2.1c0.1,0,0.1,0.1,0.2,0.1c6.9,2.8,13.4,6.4,19.4,10.7
		C350.6,359.4,349,362,346.6,363.8z M324.7,349.2c3,2.2,6.1,4.6,9.2,7.1c-4.2-1.4-8.1-3.5-11.7-6.1
		C323.1,349.9,323.9,349.6,324.7,349.2z M331.4,341.5c-0.7,0.5-1.1,1.1-1.1,1.8c-1.8,1-3.5,1.9-5.3,2.7c-0.4-0.1-0.8,0.1-1.1,0.5
		c-6,2.4-12.3,3.5-18.6,3.8c-0.1,0-0.1-0.1-0.2-0.1c-2.6-1.2,0.5-4.2,1.6-5.3c0.1-0.1,0.2-0.2,0.3-0.3c2.5-0.1,4.9-0.5,7.4-1.2
		c0.7,0.4,1.5,0.5,2.4,0.2c10.4-4.6,19.3-12.8,28.2-19.6c9-6.9,18-14.3,28.9-17.9c0.2,1.8,0.3,3.5,0.6,5.3
		C357.1,316.8,346,331.6,331.4,341.5z M343.9,287.8c-0.6-0.4-1.4-0.5-2.2-0.3c-3-0.4-5.9-0.8-8.9-1.2c-6.3-0.9-12.5-2.2-18.5-4.3
		c19.6-2.2,39.2-3.4,58.9-3.8c-0.2,3.9-0.3,7.9-0.3,11.8C363.3,289.8,353.6,288.9,343.9,287.8z M373.1,295c0.1,2,0.2,4,0.3,6
		c-5.5,1.7-10.4,4.3-15.2,7.3c1.3-4.6,2.6-9.2,4-13.8C365.8,294.6,369.4,294.8,373.1,295z M361.6,255.1c13.8-1.8,28-1.6,41.8,0.3
		c-7.4,0.3-14.8,0.5-22.3,0.4C374.6,255.7,368.1,255.5,361.6,255.1z M449,281.9c-5.7,2.2-11.6,3.8-17.6,5
		c-13.3,2.8-27.1,3.1-40.6,3.2c0.2-4,0.4-7.9,0.5-11.9c19.4,0.3,38.9,1.4,58.2,3.4C449.3,281.8,449.1,281.9,449,281.9z M390.5,295
		c3.6,0,7.2-0.1,10.8-0.2c1,4.2,1.9,8.4,2.9,12.6c-4.2-2.9-8.5-5.6-13.3-7.6c-0.2-0.1-0.4-0.2-0.6-0.2
		C390.4,298.1,390.5,296.5,390.5,295z M423.6,293.1c3-0.4,6-0.9,9-1.5c4.5-0.9,9-2.1,13.4-3.6c1.3,3.2,2.5,6.5,3.8,9.7
		C440.8,299.5,431.5,297.9,423.6,293.1z M456,300c-0.9-1.5-1.5-3.7-2.2-5.4c-1.1-2.7-2.2-5.4-3.2-8.2c0.4-0.1,0.8-0.3,1.1-0.4
		c0.8-0.3,1.9-0.6,3-1.1c2,3.4,3.3,7,4.1,10.9C459.8,298.2,458.8,299.6,456,300z M460.1,271.9c0.1,1.7-0.5,2.5-1.7,2.3
		c0.1-2.3,0.2-4.7,0.3-7c0.2,0.5,0.5,1.1,0.7,1.6C459.7,269.8,460,270.8,460.1,271.9z M322,245.8c7.1-1.5,14.2-2.6,21.4-3.4
		c14.1-1.6,28.3-2,42.5-1.7c13.6,0.3,27.2,1.3,40.8,2.7c6.6,0.6,13.2,1.5,19.6,3.4c3,0.9,5.1,1.8,6.3,3.7c-12,1.9-24.1,3.3-36.2,4.2
		c-21.9-4.4-44.9-5.1-66.8-0.4c-1.3-0.1-2.6-0.2-3.8-0.3c-10.2-0.9-20.8-2-29.9-6.8C317.8,246.4,320.3,246.2,322,245.8z
		 M301.1,269.5c-0.2-2.3,1.2-4.6,2.4-6.5c0.9-1.4,2-2.6,3.2-3.7c-0.5,4.3-1,8.6-1.6,12.9C303.5,274.8,301.2,271.1,301.1,269.5z
		 M307.2,297.6c0.3-1.6,0.7-3.1,1.1-4.6c0.7-2.4,1.7-4.8,2.9-7c0.9,0.4,1.8,0.7,2.8,1c-1.3,4.9-2.3,11-5.4,14.7
		C305.7,305.4,307.3,296.9,307.2,297.6z M315.5,299.5c1.5-3.7,2.4-7.9,3.1-11c4.3,1.1,8.6,1.9,13,2.5c2,0.3,4.1,0.6,6.1,0.9
		C332,297.4,323.5,298.8,315.5,299.5z M357.3,294c-1.8,6.1-3.5,12.3-5.3,18.4c-1,0.7-1.9,1.4-2.9,2.1c2.1-6.8,3.5-13.9,4.7-20.9
		C354.9,293.8,356.1,293.9,357.3,294z M296.1,335.4c4.5,2,9,4,13.5,6c-6.8,1-13.8-0.5-20.7-1.3c0.4-0.4,0.8-0.9,1.3-1.3
		C292,336.9,293.4,334.2,296.1,335.4z M281.6,348.2c0-0.6,0.2-1.4,0.5-2.2c0.4-1.2,1.1-2.5,2.3-2.5c0.3,0,0.7,0,1-0.2
		c0.1,0,0.2-0.1,0.3-0.2c0,0,0,0,0,0c0.2-0.1,0.4-0.3,0.5-0.4c0,0,0,0,0,0c5.5,0.5,11.1,1.6,16.6,1.9c-0.8,1-1.5,2.1-1.7,3.3
		c-0.1,0.8,0,1.6,0.2,2.3c-0.2,0.1-0.5,0.1-0.7,0.2c-6.3-0.1-12.7-0.8-19.1-1.6C281.6,348.5,281.6,348.3,281.6,348.2z M281.3,351.5
		c3.2,0.4,6.4,0.8,9.5,1.1c-3.9,1-7.9,2-11.8,3.1C279.7,354.3,280.4,352.9,281.3,351.5z M348.7,402.5c-3.9-0.8-7.7-2-11.5-3.4
		c-8.1-3-15.8-7.4-23.2-11.9c-12.8-7.9-24.3-17.6-34.5-28.5c7.1-2,14.4-3.8,21.6-5.4c6,0,12-0.5,17.8-2c0.1,0.1,0.2,0.2,0.3,0.3
		c5.9,4.6,12.6,7.7,19.9,9.2c4.8,4.3,9.4,9,13.2,14.1c-0.3,0.9,0.5,1.9,1.4,2c4.8,7,8.1,14.8,8.7,23.5c-0.2,0.3-0.4,0.6-0.5,0.8
		c-0.2,0.2-0.2,0.5-0.3,0.7C359.9,405.4,351.3,403,348.7,402.5z M370.3,374.1c0.8,1,3.1,2.7,2.6,4.1c-0.5,1.6-1.1,3.1-1.7,4.6
		c-1.8,4.7-3.8,9.1-6.3,13.5c-1.3-7.9-4.5-15-9-21.5c2.2-3.1,3.9-6.7,5.3-10.3c1,0.9,2,1.8,2.9,2.8
		C366.3,369.5,368.3,371.8,370.3,374.1z M383.1,316.9c-1.3,0-2.6,0-4,0c-0.3-1.5-0.6-3-0.9-4.5c-0.1-0.8-0.6-1.3-1.2-1.6
		c-0.3-2.1-0.5-4.2-0.7-6.3c0.7-1,0.6-2.4-0.2-3.3c-0.2-2.6-0.3-5.1-0.3-7.7c0.2-0.6,0.2-1.4,0-2c-0.1-9.2,0.4-18.5,1.4-27.6
		c3.9-0.1,7.8-0.5,11.7-0.6c-0.5,12.8-1,25.5-1.7,38.3c0,0.2,0,0.4,0,0.5c-0.2,3.2-0.3,6.5-0.5,9.7c-0.3,0.2-0.6,0.6-0.7,0.9
		c0,0,0,0,0,0c0,0,0,0,0,0c-0.1,0.3-0.3,0.6-0.3,0.9c-0.1,1-0.3,2-0.6,3C384.4,316.9,383.7,316.9,383.1,316.9z M389.7,311.8
		c0.1-2.4,0.3-4.8,0.4-7.2c6,2.8,11.3,6.5,16.4,10.5c0,0,0,0,0,0c5.2,4.2,10.2,8.7,15.2,13.3c9.8,8.9,19.9,17.7,33.1,20.8
		c0.4,0.2,1,0.3,1.6,0.1c0.1,0,0.3-0.1,0.4-0.1c2.4,0.3,4.8,0.4,7.2,0c0,0.3,0,0.6,0.1,0.9c2.2,5.2-2.8,8.6-7.2,9.2
		c-2.8,0.4-5.6-0.3-8.2-1.1c-5.5-1.5-10.3-4.8-14.6-8.5c0.1-0.6-0.1-1.3-0.7-1.9C419.2,334.6,409.5,317.1,389.7,311.8z M419.8,384.5
		c-0.1-0.1-0.1-0.1-0.2-0.2c-4.7-3.7-7.8-10.1-9.6-16c2-1.4,3.9-2.8,5.9-4.3c3.2,4,7.1,7,11.9,8.7
		C425,376.6,422.3,380.5,419.8,384.5z M429.6,370.3c-4.6-1.5-8.4-4.2-11.4-8c4.7-3.5,9.5-6.9,14.2-10.4c2.3,1.9,4.8,3.7,7.3,5.2
		C436.3,361.5,432.9,365.9,429.6,370.3z M402.4,390.9c-1.2-2.3-2.1-4.8-2.9-7.3c-1-3-2.5-5.8,0.7-8.2c2.4-1.8,4.8-3.5,7.3-5.3
		c2,6,5.2,12.4,10,16.2c0.3,0.2,0.6,0.3,0.9,0.3c-2.7,4.5-5.2,9.2-7.3,14.1C407.3,398.3,404.6,394.9,402.4,390.9z M460.5,383.9
		c-14.7,7-30.4,13.9-46.4,17.2c7-15.7,17.6-29.2,28.2-42.5c4.1,2.1,8.5,3.4,13.2,3.6c2.4,0.1,4.8-0.5,6.8-1.7c0.2,0,0.4-0.1,0.7-0.2
		c3-2.1,6.2-4,9.6-5.7c6.4,1.9,13,2.9,19.6,4.1C484.9,370.7,473,378,460.5,383.9z"/>
	<path fill="#414042" d="M273.4,71c-1.3-0.6-2.6-1.1-4-1.5c-0.3-0.4-0.8-0.5-1.3-0.4c-3.3-1-6.7-1.8-10-3c-0.2-0.5-0.7-1-1.4-1.2
		c-4.4-1.3-7.5-3.9-9.9-7.1c-0.3-0.5-0.5-0.9-0.8-1.5c-0.2-0.5-0.6-0.8-0.9-1.1c-1.8-2.9-3.1-6.2-4.3-9.5
		c-2.3-6.1-3.7-15.3-12.3-12.8c-6.5,1.9-16.2,5.1-13.9,13.6c1,3.9,3.9,7.4,6,10.7c2.8,4.5,5.7,8.9,8.6,13.2
		c-9.4,11-23.5,16.8-37.9,15.8c-1.8-0.6-3.7-1-5.5-1.5c1.8-1.8,3.3-3.8,4.4-6c1-2,3-5.7,0.5-7.5c-1.9-1.4-4.2,0-5.5,1.5
		c-2.8,3-5.2,6.2-7.4,9.6c-2.2-0.7-4.4-1.3-6.7-2c-1-0.3-2.3-0.1-2.8,0.9c-3,5.2-5.3,10.7-6.9,16.5c-0.9,3.1-0.9,5.6,0.7,7.6
		c-8.8,20.4-15.6,41.5-20.2,63.2c-3.2,15.3-10.4,44.8,12,49.3c0.7,0.1,1.8-0.3,2.2-1c10.5-19.3,24.3-36.4,41.1-50.7
		c18.8-15.9,41.1-26.6,63.7-35.8c9.5-3.9,20.2-6.6,25.6-16c4-7.1,4-15.9,2.4-23.7C287,81.4,282.1,74.8,273.4,71z M226.5,38.7
		c2-0.8,5.1-2.8,6.7,0.2c0.8,1.5,1.3,3.4,1.8,5c2,5.8,4.3,11.7,7.8,16.5c0.6,1,1.4,2,2.1,2.9c-2.9,3.5-5,7.5-6.9,11.6
		c-0.9-5.6-3.3-11.4-5.1-15.9c-1.9-4.7-4.4-9.1-7.1-13.4c-1.2-1.9-2.5-3.7-4.2-4.8C223.5,39.8,225.6,39.1,226.5,38.7z M219.1,44.6
		c-0.2-0.6,0-1.2,0.3-1.7c3.4,1.3,5.5,6.5,7,9c1.8,3.2,3.3,6.6,4.7,10c0.8,1.9,1.6,4,2.3,6.1c-4.3-6.4-8.5-12.8-12.4-19.4
		C220.1,47.4,219.5,46.1,219.1,44.6z M234.2,72.1c0.1-0.1,0.2-0.2,0.2-0.3c0.8,3.2,1.2,6.5,0.8,9.6c-1.1,2.4-2.1,4.8-3.1,7.2
		c-3.6,4-9.6,5-15,4c-3.8-0.7-7.6-1.6-11.4-2.7C216.8,87.5,226.9,81.3,234.2,72.1z M230,94c-0.2,0-0.4,0.1-0.6,0.1
		c0.2-0.1,0.5-0.2,0.7-0.3C230,93.9,230,93.9,230,94z M187.8,74.3c0.3,0.3,0.6,0.5,1,0.8c-0.2,0.6-0.5,1.2-0.8,1.8
		c-0.5,1.1-1.2,2.1-1.8,3.1c-1,1.5-2.2,2.7-3.5,3.9c-0.7-0.2-1.3-0.4-2-0.6C182.7,80.1,185,77,187.8,74.3z M166.8,96.6
		c1.1-3.8,2.8-7.4,4.6-10.9c4.4,1.3,8.9,2.6,13.3,3.9c1,0.3,1.9,0.6,2.9,0.8c0.3,0.3,0.8,0.5,1.3,0.6c0.3,0,0.5,0,0.8,0.1
		c0.6,0.2,1.2,0.4,1.9,0.5c3.6,1.1-0.8,7.6-2.1,9.3c-5.9,6-12.6,5.1-20.1,3.1c-0.6-0.2-1.2-0.4-1.9-0.6c-0.3-0.7-1.1-1.2-2-1.3
		C165.1,100.5,166.4,97.9,166.8,96.6z M164.7,111.5c2.6,0.9,4.9,2,7.3,3.5c5.6,3.6,1.3,9.6-1.2,13.5c-2.1,3.2-4.1,6.5-6.2,9.7
		c-1,1.6-2.1,3.2-3.1,4.8c-1.6,0.1-3.3,0.3-4.9,0.4c-1.2-1.2-1.9-2.6-2.1-4.2C157.5,129.9,160.9,120.6,164.7,111.5z M148.8,159.8
		c1.3-5.4,2.8-10.8,4.4-16.1c1.2,2,3.1,3.6,5.4,4.3c1.5,0.5,3.5-0.8,4.3-2c2.6-3.5,4.8-7.3,7.1-11c3.3-5.2,8.2-10.6,7.4-17.1
		c-0.6-4.9-7.1-7.6-11.6-9.1c0.1-0.3,0.2-0.5,0.3-0.8c9,3.7,19.7,3.6,26.6-3.8c0,0,0.1-0.1,0.1-0.1c0.1-0.1,0.2-0.2,0.3-0.3
		c2-2.4,5.5-8.5,4.5-12.6c0.3,0,0.6,0,0.9-0.1c7.8,2.3,17.3,5.3,25.2,4.4c-19.6,5.9-36.2,19.2-46.2,37.3c-6,10.8-9.8,22.8-15.4,33.8
		c-5.3,10.3-11.9,20-19.3,28.9c-0.1-2.3,0-4.5,0.3-6.6C144.3,179.2,146.5,169.4,148.8,159.8z M190.4,165.9
		c-15.1,13.3-27.7,29.4-37.4,46.9c-6.1-1.9-8.7-7.3-9.6-13.2c7.3-8.4,13.6-17.5,19.1-27.2c5.6-9.8,9.5-20.4,14.1-30.7
		c9.9-22.1,28.5-38.7,52.1-44.5c-0.8,2.1-1.6,4.2-2.4,6.3c-2,5.3-3.9,10.6-5.7,16c-8.7,2.6-16.3,6.2-23,12.6c-6.7,6.5-11,14.9-13,24
		c-0.3,1.6,1.8,1.9,2.6,1c7.4-8,16.6-13.8,27-16.9c-0.9,3.2-1.7,6.3-2.5,9.5C204.2,154.6,197.1,159.9,190.4,165.9z M215.2,137
		c-10,2.7-18.8,7.6-26.3,14.5c4.9-14.4,16.3-23.7,30.6-28.6C217.9,127.6,216.5,132.3,215.2,137z M215.2,147.6
		c2.3-8.6,4.8-17.2,7.6-25.7c0.8-0.4,1-1.4,0.7-2c1.3-4,2.7-8,4.2-12c2.2-6.1,4.6-12.1,7.1-18c1.2-1.5,2.1-3.3,2.9-5.5
		c0.3-1,0.6-2,0.7-3.1c2.3-5.6,4.9-11.4,8.7-15.9c3.9,3.3,8.8,5.2,13.8,6.7c2,0.6,4.1,1.2,6.1,1.8c-0.2,9.4-4.2,18.8-7.2,27.5
		c-3.4,9.9-7.3,19.6-11.4,29.2c-0.5,0.2-1,0.4-1.5,0.6C236,135.9,225.3,141.3,215.2,147.6z M283.9,90.2c2.4,8.7,1.9,19.3-4.7,26.1
		c-3.9,4-10,5.7-15.1,7.7c-4,1.6-8,3.2-12,4.9c3.9-9.3,7.5-18.7,10.9-28.3c2.9-8.3,6.3-17,6.7-25.9c1.1,0.4,2.2,0.8,3.3,1.3
		C279.1,78.7,282.2,84,283.9,90.2z"/>
	<g>
		<path fill="#414042" d="M696.9,63.4c-5.8-9.5-15.9-15.5-26.5-18.1c-16.8-4.1-35.7,0.4-49.5,10.6c-11.9,8.8-23.5,25.6-19.4,41
			c-1.9,5.8-0.2,12.4,1.7,18.3c-1.6,1.1-2.9,2.8-2.8,4.9c0.1,5.5,2,11.1,2.5,16.7c0.6,6.9,1,17.5,9.5,18.4
			c-0.2,4.5,0.8,8.9,1.7,13.3c0.8,3.9,1.4,8.9,3.2,12.8c0,0.2,0,0.4,0,0.6c3.7,22.6,35.5,32.2,52.4,18.3
			c15.7-12.9,19.6-33.4,23.6-52.3c3.5-16.7,7.2-33.4,9.7-50.3C704.8,85.4,703.4,74,696.9,63.4z M613.6,99.5c0.3,1.5,0.6,3.1,0.9,4.6
			c0.3,1.8,3.1,1.1,2.8-0.8c-0.3-1.7-0.6-3.4-0.9-5.1c0.9-0.4,1.7-0.9,2.5-1.4c0.5-0.3,0.8-0.5,1.1-0.8c1.7,1.8,3.1,12.8,3.7,16.6
			c-1.4,0.8-2.9,1.5-4.4,2.1c-0.4-1.3-0.8-2.5-1.2-3.8c-0.6-1.8-3.4-1-2.8,0.8c0.4,1.3,0.8,2.6,1.3,3.9c-2.5,0.7-5.1,1-7.8,1.1
			c-1.6-5.1-3.9-11.2-3.1-16.6c2.3,0.5,4.7,0.3,7.1-0.4C613,99.7,613.3,99.6,613.6,99.5z M635.2,76.8c7.4-4,15.1-7,23.6-7.5
			c7.2-0.4,14.4,1.5,18.4,8c5,8.1,2,19,0,27.6c-4,17.4-7.7,34.9-10.6,52.5c-1.3,8-3.3,16.6-9.3,22.6c-5.9,5.9-16.2,2.3-19.4-4.4
			c0,0-0.1-0.1-0.1-0.1c-0.5-2.5-2.1-5.1-2.9-7.2c-2.2-5.7-3.3-11.7-3.8-17.7c2.6-1.4,4.6-3.4,5.5-6c0.4-1.3-0.3-3.4-0.6-4.6
			c-0.7-2.8-1.5-5.5-2.3-8.3c-1.8-6.5-3-13-2.2-19.7c0.1-0.8-0.7-1.4-1.4-1.4c-1.2-0.4-2.3-0.7-3.5-1.1c-0.3-0.2-0.6-0.2-0.9-0.2
			c-0.8-4.1-1.6-8.3-2.3-12.4c-0.4-2-1.3-3.3-3-3.7c0-0.1-0.1-0.2-0.2-0.3C621,84.7,628.7,80.2,635.2,76.8z M628.6,120
			c0.2,2.1,0.5,4.1,0.9,6.2c-0.2-0.1-0.5-0.1-0.8,0c-4.3,1.2-8.7,2.1-13.1,2.7C618.2,124.6,624.9,123.7,628.6,120z M630.8,131.7
			c0.3,1.3,0.7,2.7,1.1,4c0.1,0.4,0.2,0.8,0.3,1.3c-3,1.7-6,3-9.4,3.9c-0.5,0.1-1.1,0.2-1.6,0.4c-1.2-2-0.7-3.1,1.5-3.3
			c1.4-0.6,2.7-1.1,4-1.7C628.8,135.3,630.2,133.6,630.8,131.7z M607.4,135.1c-0.2-1.9-2.3-11.3-1.7-14.9c0.9,0.3,1.9,0.1,2.5-0.5
			c3.3,0,6.5-0.4,9.6-1.3c0.7,0.2,1.5,0,1.8-0.6c2.1-0.8,4.2-1.8,6.2-3c0.6-0.4,0.8-1,0.7-1.6c0-0.2-0.1-0.5-0.1-0.7
			c0.7,0.3,1.4,0.5,2.2,0.7c-0.1,0.8-0.1,1.7-0.1,2.5c-0.3,0.2-0.5,0.4-0.7,0.8c-2.9,7.1-13.9,5.4-15.8,13.8
			c-0.2,0.8,0.4,1.9,1.4,1.8c5.1-0.5,10-1.4,14.9-2.8c1.7,6-15.7,6.1-12.5,13c2.5,5.3,12.4,0.4,17.2-2.3c0.1,0.3,0.1,0.5,0.2,0.8
			c1,4-1.9,6.1-5,7.6c-4,1.9-8.3,2.8-12.7,3.1c-0.4-0.1-0.8-0.1-1.2,0.1c-0.4-0.5-1-0.9-1.8-0.9
			C607.7,150.1,607.7,138.3,607.4,135.1z M617.1,154.1c1.5-0.1,3-0.3,4.6-0.6c0.1,2.8,0.5,5.5,1.3,8.2c0.5,1.8,3.3,1,2.8-0.8
			c-0.8-2.6-1.1-5.3-1.2-8c1.3-0.3,2.6-0.7,3.9-1.2c0.5,5.3,1.6,10.5,3.2,15.6c1,3,4.4,8.4,2.9,11.6c-1.6,3.4-8,3.8-11.8,2.6
			c-0.1-0.2-0.2-0.4-0.3-0.6c-2.1-3.2-2.5-8.3-3.4-11.9C617.8,164.2,616.6,159.1,617.1,154.1z M696.9,104.3c-3.2,17-6.5,34-10.2,51
			c-4.5,20.9-13.6,48.4-39.7,46.5c-6.3-0.4-12.7-3.3-17.6-7.8c0.5-0.6,0.6-1.7-0.3-2.2c-0.9-0.6-1.9-0.9-2.9-1.2
			c-1.4-1.8-2.5-3.8-3.3-5.8c5.2,1.3,11.6-0.3,14.3-4.9c0.1,0.1,0.2,0.2,0.2,0.3c0.8,3.6,4.5,13.5-3,12.3c-1.8-0.3-2.6,2.5-0.8,2.8
			c3.3,0.5,6.2-0.8,7.7-3.7c1.3-2.5,0.7-5.3,0-8c2.8,1.6,6,2.4,9.4,2.3c8.3-0.3,12.8-8.2,15.5-15c4.1-10.5,4.6-22.8,6.8-33.8
			c2.4-12.2,5.4-24.2,8-36.3c1.9-9,2.8-19.1-2.9-27c-4.4-6-12.4-7.4-19.4-7.2c-10,0.2-19.2,4.6-27.7,9.3c-1.8,1-3.6,2.2-5.3,3.4
			c-2.1-0.2-4.2-0.1-6.3,0.4c-1.8,0.4-1,3.1,0.8,2.8c0.8-0.2,1.5-0.2,2.3-0.3c-2.9,3-4.9,6.6-5.2,11.1c0,0.4,0.1,0.7,0.3,0.9
			c0,0.1,0,0.2,0,0.2c-3.4,1.9-7.2,3.9-11,3.2c0-0.2-0.1-0.4-0.1-0.5c-0.6-2-1-4-1-6c1.8-4.2,6.4-6.7,10.3-8.9
			c1.6-0.9,0.2-3.4-1.5-2.5c-3,1.6-6,3.5-8.3,5.8c2-9.7,9.5-18.9,16.7-24.9c11.5-9.5,27-12.8,41.5-11.5c13.5,1.2,24.9,9.2,31.1,21.1
			C700.7,80.9,699,92.9,696.9,104.3z"/>
		<path fill="#414042" d="M626.2,177.8c1.3,2,3.9,2.4,5.7,1c1.6-1.3,2.4-4.1,0.9-5.8c-1-1.1-2.5-1.5-3.8-1.3
			c-0.1-0.1-0.3-0.2-0.5-0.2c-0.4-0.6-0.5-1.4-0.4-2.1c0.4-1.8-2.4-2.6-2.8-0.8c-0.3,1.6-0.1,3.2,0.8,4.5
			C625.3,174.6,625.2,176.2,626.2,177.8z M630.7,174.9c0.3,0.7-0.1,1.4-0.7,1.8c-0.7,0.4-1.2-0.2-1.5-0.8c-0.1-0.2-0.2-0.4-0.1-0.6
			c0.2-0.1,0.4-0.2,0.6-0.4C629.3,174.6,630.4,174.2,630.7,174.9z"/>
		<path fill="#414042" d="M687.9,68.2c3.5,6.7,5,13.8,4.5,21.4c-0.1,1.9,2.8,1.8,2.9,0c0.5-8-1.2-15.7-4.9-22.8
			C689.6,65.1,687.1,66.5,687.9,68.2z"/>
		<path fill="#414042" d="M693.3,95.8c-1.9,0-1.9,2.9,0,2.9S695.1,95.8,693.3,95.8z"/>
	</g>
	<path fill="#414042" d="M555,146.7c0.1-5.6,0.1-11.2,0.2-16.8c3.6-5.4,5.7-11.4,6.1-17.9c0-0.6-0.5-1.3-1.1-1.4
		c-1.7-0.2-3.3-0.6-4.8-1.2c0-1.8,0-3.6,0.1-5.4c0.4-0.2,0.8-0.4,1.2-0.7c2.7-1.7,3.3-5.1,3.6-8c0.4-4.2,1.1-9.9,0-14
		c-1.5-5.8-5.9-8-11.1-8.9c-3.3-1.3-7-2.4-10.8-3.3c1.2-3.3,2.3-6.5,3.3-9.8c1-3.4-3.7-5.4-6-6.8c-4.9-3.1-9.1,6.9-11.5,13.9
		c-3.3-0.5-5.9-0.9-7.4-1.2c-9.4-1.8-19.1-2.1-28.6-0.9c-1-5-1.6-10.1-1.8-15.3c0-0.7-0.6-1.5-1.4-1.4c-9.6,0.8-11,8-10.2,16.4
		c0.1,0.8,0.1,1.9,0.2,3c-2.7,0.7-5.3,1.6-7.9,2.6c-5.4,0.5-10.2,2.3-13,7.1c-1.2,1.3-2.1,2.9-1.9,4.9c0,0.2,0,0.4,0.1,0.6
		c-0.7,4.1-0.3,8.5,0,12.5c0.2,3.3,0.3,6.3,3,8.5c0.3,0.3,0.7,0.5,1.1,0.7c0,0.7,0,1.4,0,2c-1.5-0.1-3-0.1-4.1,0.6
		c-1.5,0.9-1.5,3.4-1.7,4.9c-0.8,6.4,1.7,12.8,5.7,17.6c0,5.4,0,10.8,0,16.3c0,7,0,14.1,0,21.1c0,5.5-0.7,11.4,0.4,16.8
		c1.4,6.7,8.5,10.4,14.2,12.8c7.7,3.2,16.2,4.5,24.4,5.8c11,1.8,22.1,1.9,33-0.6c8.5-2,22.3-6.3,25.2-15.6c1.7-5.5,1-12.5,1.2-18.2
		C555,160.4,554.9,153.5,555,146.7z M525,106.1c4.8,3.8,5.6,9,6.3,15.1c0.5,3.6,1.7,6.8,4.4,9.3c4.1,3.8,10.3,1.4,14.9-1.6
		c0,5.9-0.1,11.8-0.1,17.7c-5.1,3.3-11.1,3.7-16.6,0.7c-6.3-3.5-7-10.2-8.4-16.5c-1-4.6-3.9-8.4-7.3-11.6c-4.4-4.2-7.9-7.9-9.4-13.5
		C514.2,106,519.6,106.1,525,106.1z M550.6,125.4c-3.2,2.5-7.2,4.6-11.3,3.9c-5.2-0.9-5.3-9.4-5.8-13.2c-0.5-3.9-2-7.3-4.5-10
		c0.9,0,1.9,0,2.8,0c5.4,0,10.7-0.2,16.1-0.5c0.9-0.1,1.8-0.1,2.7-0.3C550.7,112,550.6,118.7,550.6,125.4z M551.9,100.3
		c-2.7,0.8-5.9,0.6-8.7,0.8c-15,0.7-30,0.2-45-0.3c-7.5-0.3-14.9-0.5-22.4-0.7c-3.7-0.1-7.5-0.1-11.2-0.1c-1.6,0-3.2,0.1-4.7-0.2
		c-2.7-0.4-2.5-3.5-2.6-5.2c-0.1-1.5-0.2-3.1-0.2-4.6c3.7,2.4,8.1,2.7,12.5,2.8c6.9,0.2,13.8,0.3,20.7,0.4
		c12.6,0.2,25.1,0.5,37.7,0.7c8.3,0.2,21,2.7,28-3.4C555.7,94.3,556.4,99,551.9,100.3z M489.5,105.3c2.1,3.7,1,8.2,1.5,12.3
		c0.3,2.7,1.3,5.3,2.5,7.7c1.3,2.8,3.5,5.1,5.7,7.2c2.1,1.9,3.9,4.1,3.2,7.3c-0.8,3.7-4,3-6.7,2.3c-16.7-4.4-23.7-21.9-26.4-37.3
		C476,104.8,482.7,105,489.5,105.3C489.4,105.3,489.5,105.3,489.5,105.3z M527.4,66.6c0,0.1,0,0.1-0.1,0.2
		C527.3,66.7,527.4,66.7,527.4,66.6C527.4,66.6,527.4,66.6,527.4,66.6z M535.8,68.5c0.8-1.7,1.5-3.4,2.1-5.1c-0.4,1.7-1,3.5-1.7,5.2
		C536,68.6,535.9,68.6,535.8,68.5z M536.5,56.4c0.1,0,0.1,0.1,0.2,0.2c0,0-0.1,0.1-0.1,0.1c-0.4-0.3-1-0.5-1.5-0.2
		c0,0-0.1-0.1-0.1-0.1c0.1-0.2,0.2-0.4,0.2-0.5C535.6,55.9,536.1,56.1,536.5,56.4z M483.3,65.1c0.1-0.7,0.2-1.4,0.2-2.1
		c0.2,0.7,0.5,1.3,0.8,2C484,65,483.6,65,483.3,65.1z M483.7,50.9c-0.2,0-0.5,0-0.8,0c-0.1,0-0.1,0-0.2,0c0.3-0.1,0.6-0.2,0.9-0.2
		C483.7,50.7,483.7,50.8,483.7,50.9z M480.4,52.1C480.4,52.1,480.4,52.1,480.4,52.1C480.4,52.1,480.4,52.1,480.4,52.1
		C480.4,52.1,480.4,52.1,480.4,52.1z M479.3,70.8c0,0,0,0.1-0.1,0.1c0,0,0-0.1,0-0.1C479.2,70.8,479.2,70.8,479.3,70.8z M486.5,69.4
		c-0.2,0-0.5,0-0.7,0.1C486,69.5,486.3,69.4,486.5,69.4C486.5,69.4,486.5,69.4,486.5,69.4z M477.6,73.8c3.5,2.6,6.7-0.3,10-1.7
		c0.2-0.1,0.4-0.3,0.5-0.4c0.9,0,1.8-0.7,1.5-1.8c-0.1-0.3-0.1-0.6-0.2-0.9c4.9-0.6,9.8-0.8,14.6-0.7c6.2,0.2,12.5,1.6,18.7,2.8
		c-0.1,0.2-0.1,0.4-0.1,0.7c0,0.1-0.1,0.2-0.1,0.3c-0.4,1.3,0.9,2,1.9,1.7c2.9,1.9,5.9,3.4,9.2,4.7c0.8,0.3,1.5-0.3,1.8-1
		c0.5-1.2,1-2.4,1.4-3.6c2,0.5,3.9,1,5.8,1.6c0.3,0.8,1,1.4,2.1,1.5c0.9,0,1.8,0.1,2.7,0.2c1.5,0.6,3,1.2,4.5,1.9
		c3.8,1.8,3.5,4.3,1.9,6.4c-3-3.3-8.8-3.7-12.8-4.6c-9.4-2.2-18.8-4.2-28.3-5.5c-1.8-0.3-2.6,2.5-0.8,2.8c6.6,0.9,13.1,2.1,19.5,3.5
		c3.5,0.8,7.1,1.6,10.6,2.4c2.6,0.6,7.6,1,9.7,3.4c-1.1,0.8-2.4,1.4-3.6,1.7c-4,1-8.7,0.3-12.8,0.2c-9.4-0.2-18.8-0.4-28.2-0.5
		c-9.4-0.2-18.8-0.4-28.2-0.5c-4.2-0.1-8.4-0.1-12.5-0.3c-1.9-0.1-3.9-0.7-5.6-1.6c3.9-4.7,11.9-5.5,17.5-6.5
		c7.5-1.3,15.1-1.6,22.6-1.2c1.9,0.1,1.9-2.8,0-2.9c-9.1-0.4-18,0.3-26.9,2c-5.5,1.1-11.9,2.3-15.5,6.8c-0.5-0.6-0.8-1.2-1-1.8
		c0.3-1.3,0.7-2.5,1.4-3.6c0.5-0.5,1.2-1,2.1-1.5c4.8-2.5,9.9-4.4,15.2-5.9C476.5,72.5,477,73.3,477.6,73.8z M464.6,104.8
		c0.6,0,1.2,0,1.7,0c3.1,18.2,12.5,38.3,33,40.9c6.6,0.8,7.8-10.3,4.1-13.6c-4.5-4.1-7.8-7.4-9.4-13.5c-1.2-4.5,0.2-9-1.4-13.3
		c1.9,0.1,3.7,0.1,5.6,0.2c2.5,0.1,5,0.2,7.6,0.2c1.3,5.9,4.6,10.4,9.2,14.5c3.3,2.9,5.8,5.9,7.3,10c1.2,3.4,1.2,7.1,2.4,10.5
		c3.8,10.7,16.3,14,25.6,9.2c0,2.9-0.1,5.9-0.2,8.8c-8.8,5-18.5,2.5-27.3-1.6c-6-2.8-11.9-3.3-16.3,2.3c-1.7,2.3-2.7,5.3-3.7,7.9
		c-2,5.1-5.4,8.4-9.6,11.6c-5.2,4-10.7,8.5-11.5,15.2c-3.7-0.8-7.4-1.8-10.6-3.4c0.2-8.9,9.5-13.3,16.3-17.4
		c3.6-2.2,11.1-6.8,9.8-12.1c-1.5-6-8.5-9.2-13.6-11.7c-6.5-3.2-20-4.1-22.4-12c0-11,0-22,0.1-33
		C462.4,104.8,463.5,104.8,464.6,104.8z M461.2,155.9c4.9,1.8,12.2,4.8,9.4,9.6c-2,3.5-5.8,6.2-9.4,8.2
		C461.2,167.8,461.2,161.9,461.2,155.9z M455.7,121.8c0.1,0.3,0.2,0.7,0.3,1c-0.2-0.3-0.3-0.7-0.5-1
		C455.5,121.9,455.6,121.8,455.7,121.8z M456.1,108.7c-0.1,0.7-0.2,1.5-0.3,2.2c-0.2-0.7-0.3-1.5-0.5-2.2
		C455.6,108.7,455.8,108.7,456.1,108.7z M461.2,177.7c0-0.2,0-0.5,0-0.7c2.9-1.5,5.4-3.3,7.9-5.4c1.8-1.6,5.2-4.7,5.2-7.5
		c0.1-6.7-7.3-9.1-13.1-11.2c0-3.3,0-6.5,0-9.8c1.7,1.7,3.8,3.1,6.2,4c8.1,3,15.9,5,23.1,10c11.1,7.6-8.4,15.9-13.6,19.5
		c-4.4,3.1-7.9,7.5-8.5,12.8C464.1,186.9,461.2,183.1,461.2,177.7z M527.2,196.3c-8,2.1-16.3,2.2-24.4,1.3
		c4.6-7.6,10-14.5,18.1-18.6c8.6-4.4,23.6-2.5,25.8,8.6c-0.9,0.8-1.9,1.5-3.1,2.1C538.4,192.8,532.9,194.8,527.2,196.3z
		 M549.3,182.1c-0.1,1-0.3,1.9-0.6,2.7c-3.3-8.2-13.3-12.4-21.9-10.7c-12.7,2.5-20.8,12.6-27.1,23.2c-2.1-0.3-4.2-0.6-6.2-0.9
		c-2.5-0.4-5.5-0.9-8.7-1.5c0.8-8,9.4-12.3,15-17.2c5.1-4.6,6-11.1,9.6-16.6c3.3-5.1,9.4-2.6,13.8-0.6c3.3,1.6,6.7,2.8,10.3,3.6
		c5.8,1.2,11.7,0.7,17-1.8c-0.1,4.2-0.2,8.4-0.4,12.5C549.6,177.2,549.4,179.6,549.3,182.1z"/>
	<path fill="#414042" d="M703.2,269.6c-0.6-5.5-1.9-11.6-5.5-16c-2-2.4-4.5-3.9-7.2-4.8c1.5-6.9,1.5-14.1,0.5-21.1
		c-0.8-5.7-3.1-11.3-9.3-12.5c-6.1-1.2-10.9,4.7-12.1,9.9c-1.9,7.9,3.4,15.4,4.8,23.1c-12.1,0.7-23.9,3.7-35.6,7
		c-15.3,4.3-30.7,8.7-46,13c-15.4,4.3-30.7,8.7-46.1,13c-5.5,1.6-11.4,2.7-16.1,6.3c-4.5,3.4-5,8.8-5.4,14
		c-1.3,15.3-2.3,30.6-2.8,45.9c-0.9,0.1-1.8,0.6-2,1.7c-0.1,0.5-1.2,1.4-1.5,1.9c-0.9,1.2-1.4,3.1-1.5,4.5c-0.5,5.1,1.9,10,0.9,15.1
		c-0.2,1.3,0.3,2.6,1.7,3c0.6,0.2,1.3,0.4,1.9,0.6c0,6.7,0,13.4,0.1,20.2c0.4,23.1,0.3,46.3,1.1,69.4c-0.9,0-1.7,0.6-1.9,1.7
		c-0.8,5.3-1.2,10.6-0.9,16.1c0.1,2.9,1.7,4.2,3.8,5.3c0,0.4,0,0.7,0.1,1.1c1.3,20.1,3.7,40.1,7.8,59.9c0.2,1,1.3,1.8,2.3,1.8
		c6.7-0.1,12.9,0.9,19.5-0.6c0,0.1,0,0.1,0.1,0.2c0.9,3,2.4,6.6,5.1,8.4c1.6,1.1,3.9,2.3,6.4,3.3c0.2,0.2,0.5,0.5,0.9,0.6
		c0.3,0.2,0.7,0.3,1,0.4c5.1,1.9,10.8,1,16.1,0.3c7.2-0.9,14.2-2.7,21.1-4.9c13.5-4.2,27.1-9.6,39.7-16c6.4-3.2,12.4-7.2,19.2-9.7
		c5.5-2.1,11.6-1.7,17.2-3.6c11.7-4,12.7-16.6,13.6-27.1c5.4-63.3,8.1-126.9,8.3-190.5C702.4,296.7,704.6,283.1,703.2,269.6z
		 M681.7,220.1c4.6,0.9,4.7,9.1,4.9,12.5c0.3,5.2,0.3,10.1-0.8,15.2c-0.8-0.1-1.6-0.2-2.5-0.3c2.5-8.9,0.5-17.9-5.1-25.3
		c-1.1-1.5-3.2,0.6-2,2c0.4,0.5,0.7,0.9,1,1.4c-1.1,1.1-2,2.3-2.7,3.6c0,0,0,0.1,0,0.1C674.1,224.2,675.5,218.9,681.7,220.1z
		 M680.4,247.4c-0.4,0-0.9,0-1.3,0c-0.7-3.8-2-7.3-3.3-10.9c-0.5-1.4-1-3.5-1.2-5.7c0.6,0.7,1.8,1,2.4-0.1c0.5-0.9,1.1-1.7,1.8-2.5
		C681.8,234.1,682.3,240.9,680.4,247.4z M534.1,290.8c5.5-4.2,14.7-5.2,21.2-7.1c30.6-8.6,61.1-17.6,91.7-25.8
		c9.8-2.7,19.8-4.7,30-5c4.5,2.6,9.1,7.1,8.2,12.5c-1.2,7.4-14.9,10-20.7,12.1c-14.4,5.1-29,9.4-43.7,13.2
		c-14.6,3.8-29.4,7-44.1,10.1c-5,1-9.6,2.6-13.4,6.1c-4.2,3.8-4.8,10.2-5,15.5c-0.6,13-0.9,25.9-1.2,38.9c-0.3,0.1-0.6,0.3-1,0.4
		c-2.2,0.9-4.5,0.8-6.7,0.4c0.2-4.7,0.4-9.4,0.6-14.1c0.4-7.6,0.8-15.2,1.2-22.9c0.5-8.7-0.8-19.5,8.9-23.1c7-2.6,14.2-4.7,21.3-7
		c21.4-7,42.8-14,64.2-21c7.4-2.4,14.7-4.8,22.1-7.2c5.4-1.8,12.1-5.6,8-12.4c-1-1.6-3.5-0.1-2.5,1.5c3.3,5.5-3.1,7.2-6.6,8.3
		c-4.5,1.5-9.1,3-13.6,4.4c-14.1,4.6-28.2,9.2-42.2,13.8c-13.1,4.3-26.1,8.5-39.2,12.8c-3.3,1.1-6.5,2.1-9.8,3.2
		c-6.8,2.2-11,5.1-12.4,12.5c-1,5.2-0.9,10.8-1.2,16.2c-0.4,6.3-0.7,12.7-1,19c-0.3,5.1-0.5,10.2-0.7,15.2c-0.8-0.2-1.6-0.5-2.4-0.7
		c-6.1-1.9-11.9-4.4-17.5-7.4c0.3-13.7,1.2-27.3,2.4-41C529.6,305.9,528.4,295.1,534.1,290.8z M555.4,470.5c-0.2,0-0.5,0.1-0.7,0.1
		c-2.4,0.3-4.8,0.3-7.2,0.2c-0.6-25,0.1-50.1,0.8-75.1c0.1-4.6,0.3-9.2,0.4-13.9c2.8,0.6,5.4,0.8,8,0.6c-0.2,11.8-0.4,23.6-0.7,35.3
		C555.5,435.4,555.2,452.9,555.4,470.5z M545.8,381.1c0,1.1-0.1,2.1-0.1,3.2c-0.8,25.2-1.1,50.4-1.1,75.6c0,3.6,0,7.2,0.1,10.8
		c-1.2-0.1-2.5-0.2-3.7-0.4c-2.4-0.3-9.5-0.4-12.9-2.3c-0.2-5.2-0.3-10.5-0.5-15.7c-0.5-25.6-1.1-51.3-1.1-76.9
		C532.9,377.3,539.3,379.2,545.8,381.1z M536.3,544.6c-3.7-18.5-5.9-37.2-7.2-55.9c5.3,2,10.8,3.4,16.4,4
		c0.8,13.2,2.1,26.3,4.5,39.3c0.7,4.1,1.6,8.2,2.6,12.2C547,545.4,541.8,544.7,536.3,544.6z M556.2,547.8c1.2-1.2,0.6-3.6-1-4
		c-0.6-2.6-0.9-5.2-1.4-7.2c-3.1-14.4-4.6-29-5.5-43.7c2.5,0.2,5,0.2,7.5,0.1c0.2,6.2,0.5,12.4,0.8,18.6c0.6,10.6,1.5,21.1,2.5,31.6
		c0.4,4.2,0.7,8.7,2.3,12.4C558.9,554.2,557.3,551.2,556.2,547.8z M698.1,296.2c-0.8,11.7-0.6,23.3-0.7,35
		c-0.2,15.9-0.5,31.8-1,47.8c-1,31.7-2.7,63.4-5,95.1c-0.6,7.6-1.2,15.2-1.8,22.8c-0.6,7.2-0.4,15.2-4.3,21.6
		c-3.4,5.6-11,6-16.7,6.9c-6.5,0.9-12,3.7-17.7,6.7c-12.8,6.8-25.8,12.6-39.4,17.6c-6.6,2.4-13.3,4.5-20.2,6.1
		c-6.3,1.5-16.4,4.2-22.7,1.5c-5.4-3.7-4.6-13.8-5.1-19.5c-0.7-8-1.3-16.1-1.8-24.2c-0.4-6.9-0.8-13.9-1.1-20.9
		c4.2-0.5,8.2-1.5,12.2-2.8c3-1,5.9-1.9,9.1-2.1c1.3-0.1,2.7-0.5,3.6-1.4c2.6-2.6,2.3-7.8,2.1-11.2c-0.4-4.4-2.2-8.6-4.7-12.2
		c-0.7-0.9-1.6-1.3-2.7-1.1c-7.2,1.4-13.2,5.4-20.1,7.6c0-0.8,0-1.6,0-2.3c-0.3-28.4,0.8-56.9,1.6-85.3c2.4-0.6,4.8-1.4,7.4-2.4
		c6.9-2.8,15.6-4.9,21.4-9.7c4.4-3.7,3.2-11,2.2-15.8c-1.1-4.4-3.9-6-8.2-4.8c-6.3,1.6-12.5,4.5-18.3,7.5c-1.3,0.7-2.6,1.4-3.9,2.1
		c0.3-11.6,0.6-23.1,0.8-34.7c0.2-7.8,1.6-14.1,9.6-17c6.7-2.4,14.1-3.3,21-4.8c14.9-3.3,29.7-6.9,44.4-11.1
		c13.9-4,28.4-8.1,41.7-14.1c5.8-2.6,11.9-7.8,10.3-15c-0.8-3.8-2.9-7-5.7-9.6c3.6,0.4,7,1.4,9.5,4.1c2.9,3,3.8,7.8,4.4,11.7
		C699.7,277.3,698.7,287,698.1,296.2z"/>
	<path fill="#414042" d="M411,453.1c-12.4-5.1-24.8-3.8-37.5-0.8c-14.6,3.4-29.2,7-43.7,10.6c-0.8-3.4-3.2-5.6-5.9-6.3
		c-0.1,0-0.2,0-0.2-0.1c-2.6-0.6-5.5,0.1-7.5,2.2c-4.5-4.4-11.6-3.2-15,1.8c-2.3-2.7-5.1-4.5-9-4.7c-2.3-0.1-4.2,1-5.3,2.7
		c-2.2-2.5-5.1-4.4-8.3-4.4c-3.4,0-5.2,2.4-6.1,5.3c-4.2-2.7-9.8-2.2-13.4,2.1c-14.3-3-28.7-5.6-43.2-7.7
		c-13.2-1.9-26.8-4.3-40.1-3.2c-11.1,0.9-21.6,5.4-28.5,14.4c-6.3,8.1-8.5,18.6-8.7,28.7c-0.4,21.8,10,47.4,30.9,56.5
		c11.7,5,25,4.5,37.4,3.3c14.7-1.4,29.1-4.7,43.2-8.7c3-0.8,6-1.8,9-2.7c0.3,3.9,2,7.5,5.8,9.5c0.5,0.2,0.9,0.4,1.4,0.6
		c1.3,0.9,2.9,1.3,4.7,0.9c1.2-0.3,2.2-1.1,3-2.1c0.1-0.1,0.2-0.1,0.2-0.2c0.2,0.4,0.5,0.8,0.7,1.2c0.6,1.9,1.7,3.9,3.6,4.2
		c0.7,0.1,1.3,0.1,1.9,0.1c0.2,0.1,0.4,0.1,0.6,0.2c3.4,0.8,5.7-1.3,7-4c0.2,0.1,0.5,0.2,0.8,0.3c3.7,2.2,7,0.5,9.2-2.5
		c0.7,0.8,1.4,1.5,2.2,2c0.4,0.7,1,1.3,1.6,1.7c2.6,1.4,4.7,1.1,6.3-0.1c1.8-0.4,3.6-1.3,5-2.8c0.3,0.3,0.6,0.6,0.9,0.9
		c0.6,0.9,1.3,1.6,2.2,2.2c3,2,6.4,1.3,8.8-1.1c0.8-0.6,1.5-1.3,2.1-2.3c24.8,10.2,51.7,14.1,78.4,11.2c12.5-1.3,23.8-3.8,30.5-15.3
		c6.4-11.1,9.2-24.9,9.4-37.5C445.7,485.8,433.1,462.2,411,453.1z M361.6,464.9c12.2-2.5,24.7-4.6,37.1-2.4
		c10.5,1.9,19.9,7.5,25.6,16.6c5.1,8.4,5.8,18.7,5.3,28.3c-0.5,9.4-1.9,21.1-6.6,29.4c-5.4,9.6-19.7,10.5-29.3,11.3
		c-22.3,1.7-44.9-2.9-65.1-12.5c-0.3-2.6-0.7-5.1-1-7.5c0,0,0,0,0,0c19.4,9,39.6,12.8,61,10.7c9.5-0.9,19.3-2.5,26.6-9.1
		c6.3-5.7,8.8-14.6,9.6-22.7c1-9.1-1.1-18.3-6.5-25.7c-5.3-7.3-13.8-10.5-22.5-11.5c-11.2-1.4-23.1,0.9-34.2,2.3
		c-11.1,1.4-22.1,3.5-32.8,6.6c0.3-1.8,0.5-3.7,0.5-5.5C339.9,469.8,350.7,467.1,361.6,464.9z M284.5,547.2
		c-0.1,0.3-0.1,0.8-0.2,1.2c-0.3,1.1-0.8,2.1-1.5,3c-0.7,0.4-1.7,0.3-3.2-0.8c-1.3-1-2.1-3.2-2.7-4.7c-0.1-0.2-0.2-0.3-0.3-0.5
		c0-1.6,0-3.2,0-4.8c-0.1-9-0.2-17.9-0.3-26.9c-0.1-9-0.2-17.9-0.3-26.9c0-3.2-0.3-6.7-0.4-10.1c0-0.6,0.1-1.1,0.1-1.7
		c0-1.5,0-2.9-0.2-4.4c0-1.8,0.1-3.6,0.3-5.3c0.2-0.3,0.3-0.7,0.3-1.1c0.2-3.2,1.5-6.3,5-4.3c1.1,0.6,1.9,1.5,2.7,2.5
		c0.3,0.6,0.5,1.3,0.7,1.9c0.9,3.8,0.4,8.1,0.4,12c0,4.4,0,8.7,0,13.1c0.1,13.3,0.2,26.6,0.3,39.9c0,3.9,0,7.9,0,11.8
		c0,0.2,0,0.4,0,0.7c-0.1,1.6-0.2,3.1-0.5,4.6C284.6,546.7,284.5,546.9,284.5,547.2z M272.5,545.4c-1.6,2.6-4.8,2.9-7.1,1.1
		c-0.3-0.3-0.6-0.6-0.9-0.9c-0.6-1.5-0.9-3.1-1.1-4.7c0-0.7,0.1-1.4,0.2-2c0.1-0.7-0.1-1.2-0.4-1.6c0-0.5-0.1-1-0.1-1.5
		c-0.6-8.8-0.9-17.7-1.1-26.6c-0.2-8.9-0.1-17.7,0.1-26.6c0-1.6-0.4-11.6,0.9-17.4c0.1-0.3,0.2-0.5,0.2-0.8c0.1-0.2,0.1-0.4,0.2-0.5
		c1.6-1.2,3.4-1.6,5-1.1c8.4,6.7,2.8,21.8,2.7,31c-0.1,8.9,0.5,17.8,1.1,26.6c0.4,5.6,1.5,11.7,1.5,17.6c0,0.5,0,1,0,1.6
		c-0.1,1.8-0.3,3.6-0.6,5.3c0,0,0,0.1,0,0.1C272.8,545,272.7,545.2,272.5,545.4z M259,492.3c0,1.1,0,2.2,0,3.3
		c-14.1-2.5-28.4-3-42.7-2.6c-9.8,0.3-24.6-0.6-25.1,12.7c-0.4,11,11.4,14.3,20.2,13.1c16-2.2,31.9-6.2,47.7-9.5c0,1.5,0,3,0.1,4.5
		c-13.3,3.2-26.5,6.5-39.8,9.7c-7.3,1.7-14.6,2.7-21.9,0.6c-8.3-2.4-11.7-9.8-13.6-17.5c-1.9-7.7-0.4-17.3,7.9-20.5
		c6.2-2.4,15.5,0.3,21.9,1c14.9,1.7,29.9,3.4,44.8,5.1C258.8,492.3,258.9,492.3,259,492.3z M259.1,503.4c0,1,0,2,0,3
		c-11.7,2.4-23.4,4.7-35.1,7.1c-9.5,1.9-28.9,7.5-29.9-7.8c-0.4-7,6.4-8.8,11.9-9.3c5.7-0.4,11.5-0.6,17.2-0.7
		c11.9-0.1,23.9,0.6,35.7,2.7C259,500.2,259.1,501.8,259.1,503.4z M259,489.5c-0.1,0-0.2-0.1-0.3-0.1c-18.7-2.1-37.3-4.2-56-6.3
		c-6.8-0.8-13.1-0.6-18,4.7c-4.4,4.8-4.6,11.8-3.8,17.9c0.9,6.4,3.7,13.9,9.1,17.8c5.8,4.1,12.6,5.2,19.6,4.7
		c8.4-0.6,16.7-3.3,24.8-5.3c8.3-2,16.6-4.1,25-6.1c0,1.1,0.1,2.2,0.1,3.2c-0.1,0-0.1,0-0.2,0c-8.8,2.6-17.6,5.2-26.4,7.9
		c-9.4,2.8-18.8,5.8-28.6,6.6c-9.1,0.7-18.7-1.3-26-7.1c-7.5-5.9-9.9-15.6-10.4-24.6c-0.5-7.7,0.6-15.9,4.6-22.7
		c5.8-9.7,17.4-8.3,26.9-6.9c19.9,2.9,39.8,5.8,59.7,8.7c0,0,0.1,0,0.1,0C259,484.5,259,487,259,489.5z M259.1,479.2
		c-22.5-3.3-45.2-7.7-67.9-9.8c-8.2-0.7-15.5,1.6-20.6,8.3c-5,6.5-5.8,15.7-5.8,23.6c0.1,8.2,1.9,17.4,7.2,24
		c5.6,6.9,13.9,10.9,22.7,11.9c10.3,1.2,20.4-1.1,30.3-3.9c11.5-3.3,23-6.8,34.5-10.3c0.1,1.8,0.2,3.5,0.3,5.3c-0.2,0-0.3,0-0.5,0.1
		c-20.9,7.7-42.7,11.8-65,12.1c-5.4,0.1-10.9,0-16-1.8c-5.2-1.7-9.3-6.3-12.5-10.5c-5.7-7.5-8.9-16.7-9.9-26c-1-9.3,0.8-18.8,5-27.2
		c2.6-5.2,6.2-9.2,12.1-10.7c5.3-1.3,11.6-0.6,17-0.4c23.4,0.6,46.7,4.1,69.4,10C259.2,475.7,259.2,477.5,259.1,479.2z M296.6,462.6
		c0.6,0.5,1.1,1.2,1.6,1.9c0.9,1.6,1.5,3.6,1.9,5.5c-0.1,2.2-0.1,4.5-0.2,6.7c-0.2,6.3-0.3,12.6-0.5,19c0,0.1,0,0.3,0,0.4
		c0,0.5-0.1,1-0.1,1.6c-1,15.2-0.5,30.4-2.1,45.6c-0.5,0.2-0.9,0.5-1.3,0.9c-0.8,1.1-5.3,6.6-6.8,3c-0.2-0.4-0.5-0.8-0.8-1
		c-0.1-0.9-0.2-1.8-0.3-2.7c0-0.6,0.1-1.1,0.1-1.7c0-3.7,0-7.4,0-11.1c0-7.3,0-14.6,0.1-21.9c0.1-8.3,0.3-16.5,0.6-24.8
		c0.1-3.2-0.9-19.9,2.8-23.1C293.3,460.8,295.6,461.7,296.6,462.6z M301.6,535.6c0.1-11.8,0.4-23.6,0.6-35.4
		c0.4-5.8,0.9-11.6,1.4-17.4c0.3-4.2,0.4-8.9-0.6-13.2c0.1-0.8,0.2-1.7,0.3-2.5c0.4-0.4,0.7-1,0.8-1.6c0.6-5.2,5.9-5.9,8.9-3
		c0.3,1.5,0.2,3.1,0.2,4c0,1.8-0.1,3.5-0.3,5.3c-0.2,0.2-0.4,0.4-0.5,0.8c-2.1,15-3.4,30.1-3.6,45.3c-0.1,7.8,0.2,15.6,0.3,23.4
		c0,1.6,0.1,3.1,0,4.7c-0.1,0.8-0.3,1.5-0.4,2.3c-2.3,1.6-5.4,1.2-7.2-1.1C300.9,543.5,301.5,539.2,301.6,535.6z M313.9,538.6
		c-0.5-8.7-0.5-17.4-0.3-26.1c0.2-8.7,0.9-17.4,1.9-26c0.5-4.8,1.2-9.6,2-14.4c0.3-1.8,0.6-3.7,0.9-5.5c0.2-1.1,0.4-2.1,0.6-3.2
		c0-0.5,0.2-0.9,0.4-1.3c1.8-2.1,5.5-1.4,5.8,2.1c0.1,0.8,0.4,1.4,1,1.8c0.3,1.7,0.4,3.5,0.4,5.2c-0.2,0.4-0.2,0.9,0,1.3
		c-0.3,12.2-5.6,24.4-4.8,36.8c0.5,8.2,2.8,16.2,3.8,24.3c0.4,3.3,0.9,7.9,0,11.9c-0.8,0.1-1.6,0.6-2,1.6c-1.8,4.9-6.9,2.1-8.1-1.1
		c-0.1-0.4-0.4-0.7-0.7-1C314.2,542.3,314,539.6,313.9,538.6z M327,524.9c-0.4-2-0.7-4-1.1-6c16.2,8,34,10.4,51.9,10.3
		c15.2,0,34.3-4.4,36.3-22.6c0.8-7.3-1.6-13.9-6.3-19.3c-5.3-6-13.5-7.9-21.2-8.2c-10.1-0.4-20.5,1.7-30.4,3
		c-9.8,1.3-19.5,3-29.1,5.2c0.4-1.9,0.8-3.7,1.1-5.5c18.8-5.7,38.9-8.5,58.5-9.4c9.5-0.4,19.2,1,26.5,7.5c6.8,6.1,9,15.7,8.8,24.5
		c-0.2,8.5-2.9,17.2-9,23.4c-7,7.1-18.7,7.8-28,8.6c-20,1.7-39.3-2.6-57.3-11.2C327.6,524.9,327.3,524.9,327,524.9z M326.3,491.1
		c0.1-0.3,0.1-0.5,0.2-0.8c16.7-4,33.9-6.2,51-8c7.8-0.8,15.8-0.8,23,2.7c7.4,3.7,11.4,12,11,20c-0.8,19.9-23.8,21.4-38.7,21.1
		c-16.4-0.2-32.8-3.2-47.4-10.9c-0.3-1.8-0.5-3.6-0.7-5.5c15,3,30.1,6.6,45.3,7.7c8.7,0.6,28.5,0.8,29.2-12.1
		c0.8-13.5-16-11.7-24.6-10.8c-16.3,1.9-32.8,2.2-49.3,1.3C325.6,494.4,325.9,492.8,326.3,491.1z M324.5,507
		C324.4,506.9,324.4,507,324.5,507c-0.1-2.7,0.1-5.3,0.4-8c11.6,0.6,23.2,0.6,34.8,0c6.2-0.4,12.4-1,18.6-1.7c6-0.7,13.2-1.7,17.2,4
		c2.9,4.1-1,8.8-4.3,10.9c-3,1.9-7,2.2-10.4,2.5c-6,0.6-12.1,0.1-18.1-0.6C349.9,512.5,337.1,509.4,324.5,507z M184,549
		c-25.6-2.5-38.8-26.3-40.8-49.9c-0.8-10,0.8-20.4,6.1-29.1c6.6-10.7,18.8-14.4,30.7-14.8c12.6-0.5,25.6,2,38,3.8
		c14,2.1,27.9,4.7,41.8,7.6c-0.1,0.7-0.1,1.3-0.2,1.9c-0.1,0.8-0.1,1.7-0.2,2.5c-25.2-6.5-51-9.9-77-10.1c-4.4,0-9.6-0.3-13.7,1.7
		c-4.4,2.1-7.2,5.5-9.7,9.7c-5,8.5-6.7,18.7-6.2,28.5c1,17.3,12,40.3,31.3,42.2c25.2,2.5,52.2-3.1,75.7-11.8
		c0.1,1.8,0.2,3.6,0.4,5.3C236.1,544.1,209.7,551.5,184,549z M433.1,541.5c-2.6,5.6-6.2,10.1-12.1,12.5c-5.9,2.4-12.8,2.9-19,3.5
		c-25,2.4-50.6-1.7-73.8-11.4c0.5-2.3,0.7-4.7,0.6-7.2c21.9,10.1,46,14.1,69.9,11.6c9-0.9,20.4-2.9,25.9-11
		c5.7-8.5,6.8-20.6,7.7-30.6c0.8-9.8-0.1-19.8-4.3-28.8c-4.4-9.5-13.1-15.6-22.7-18.9c-11.9-4.1-25.1-2.6-37.2-0.5
		c-13.1,2.3-26,5.5-38.7,9.3c0-0.7-0.1-1.4-0.1-2.2c0.2,0,0.4,0,0.7-0.1c12.6-3,25.1-6.1,37.7-9.1c12.2-3,24.5-6.2,37-2.8
		c22,6.1,34.7,28.2,35.8,49.8C441.1,517.9,438.1,530.4,433.1,541.5z"/>
	<g>
		<path fill="#414042" d="M229.5,328.9c-4.3-7.8-10.6-12.1-17.8-16.9c-5.5-3.6-6.2-9.8-4.8-15.7c1.2-5.1,5.3-8,9.1-11.1
			c5.8-4.7,9.5-12.3,11.2-19.4c1.7-7.1,0.2-14.1-5.3-19c-5.8-5.2-13.4-8.1-21.1-9.2c-7.3-1.1-14.9-0.2-21.1,4
			c-7.3,4.8-10.2,14-10,22.3c0.5,5.7,2.3,10,6.3,14.1c2.6,2.6,5.2,4,6.6,7.6c1.4,3.3,0.7,7.4-0.2,10.8c-1.7,6.5-8.5,8.1-13.9,10.5
			c-5.4,2.4-10.5,6.3-14.7,10.4c-13.5,13-19.7,36-13.1,53.7c3.5,9.5,11.4,16.8,20.8,20.4c10.7,4.1,23.2,6.9,34.8,6.9
			c10.1,0,18.9-4.5,25.5-12c3.6-4.1,7.3-9.1,9.3-14.2c2.4-6.2,2.9-12.9,3.3-19.5C235,344.3,233.5,336.3,229.5,328.9z M223.8,375.8
			c-6.8,10.7-15.7,17.6-28.6,17.6c-5.6,0-11.1-1.1-16.5-2.3c-7.3-1.6-14.5-3.3-21-7.1c-22.9-13.4-15.7-47.4-0.3-63.4
			c4.9-5.1,11.4-8.7,17.9-11.4c5-2.1,9.5-5,11.5-10.3c1.9-5,2.5-11.5-0.1-16.4c-1.5-2.9-3.5-4.9-6-6.9c-3.9-3.1-5.7-6.8-6.1-11.7
			c-0.2-6.9,1.9-13.9,7.6-18.2c4.4-3.4,10.3-3.9,15.6-3.7c9.7,0.5,24.6,6,25.3,17.2c0.3,5.2-1.9,10.6-4.4,15
			c-2.8,4.9-6.9,7.6-10.9,11.4c-7.6,7.2-8.6,19.1-2.3,27.2c3.3,4.2,9.2,6.6,13.4,9.9c4.3,3.4,7.5,9.7,9.2,14.8
			C232,349.3,230.2,365.6,223.8,375.8z"/>
		<path fill="#414042" d="M210.4,253.8c-4.6-4.1-12.2-4.5-17.7-2c-6.9,3.3-9.3,10-8.2,17.2c0,0.1,0,0.2,0,0.3c0,0.1,0.1,0.2,0.1,0.3
			C190.9,292.7,227,268.7,210.4,253.8z M187.4,268.6c-1.8-10.6,7.4-17.9,17.5-14.7c4.8,1.5,7,5.8,6.7,10.6
			c-0.4,5.1-5.1,8.4-9.2,10.5C195.8,278.3,189.2,275.7,187.4,268.6z"/>
		<path fill="#414042" d="M210.5,331c-13-10.8-31.3-12.6-44-0.5c-6.4,6.7-10,15.1-11.3,24.2c-0.6,4-0.5,7.4,1.8,10.8
			c2.2,3.3,5.8,6.2,9,8.6c15,10.9,33.2,10.8,46.3-3c5.1-5.4,8.2-12.3,8.6-19.7C221.4,343.1,216.6,336.1,210.5,331z M210.2,369
			c-10.5,12-26,12.8-39.2,5c-3.2-1.9-6.1-4.4-8.8-7c-4.1-4-4.8-7.7-4.1-13.1c1.2-8,4.8-15.6,10.4-21.4c11.1-10.5,26-9.1,38-0.9
			C220.4,341,220.9,356.9,210.2,369z"/>
	</g>
	<g>
		<path fill="#414042" d="M351.7,137.1c-3.8-0.1-7.6,0.4-11.4,1.1c-2.8,0.6-8.5,1.9-10.1,4.7c-4,6.7,8.7,7,12.4,7.3
			c6.1,0.4,16.3,0,18.3-7.5C362.6,136.4,356.4,137.2,351.7,137.1z M357.7,142.9c-2.4,5.2-10.4,4.8-15.1,4.5c-2.4-0.2-4.7-0.6-7-1
			c-5-0.9-0.1-3.6,2.4-4.6c4.1-1.5,8.6-1.9,13-1.9c1.1,0,2.3,0.1,3.4,0.1C357,140.2,359.3,139.4,357.7,142.9z"/>
		<path fill="#414042" d="M389.8,138.4c-4.4-1.4-9.1-0.5-13.7-0.5c-2.1-0.1-5.5-0.8-7.4,0.4c-2.6,1.7-3.1,6.1-4.1,8.8
			c-0.2,0.5,0,1.1,0.4,1.4c2,1.8,7.4,0.7,9.7,0.7c4.5,0,13.2,0.7,16.6-2.8C393.9,143.9,393.3,139.5,389.8,138.4z M386.8,145.2
			c-3.3,1.1-6.8,1.1-10.2,1.1c-2.8,0-5.5,0.1-8.3,0c-0.5,0-0.9,0-1.4-0.1c1.9,0.1,1.7-1.7,2.3-3.2c1.2-3.3,4.3-2.4,6.9-2.3
			c3.2,0,6.3-0.3,9.5-0.2c0.9,0,1.7,0.2,2.6,0.4C391.4,141.6,388.5,144.6,386.8,145.2z"/>
		<path fill="#414042" d="M359.4,53.7c-8.8,0.1-18.1,2.2-25.7,6.8c-6.6,4-11,10.9-13.8,18c-3.7,9.2-3.8,19.5-3.3,29.3
			c0.6,11.5,1.9,23,2.9,34.5c0,0.4,0,0.8,0.1,1.2c0.2,1.2,0.3,2.3,0.5,3.5c0,0.3,0.1,0.7,0.1,1c1.6,11,3.7,22.3,6.3,33.1
			c2.2,9,10.1,12.7,18.6,13.8c11.1,1.5,23.9,2.9,35,0.9c4.1-0.7,7.7-2.1,10.5-5.3c3.6-4,4.3-10.8,5.4-15.8
			c1.4-6.1,2.7-12.2,3.8-18.4c1.1-6,2.9-12.5,2.7-18.6c0-0.4-0.1-0.7-0.1-1.1C406.3,103,402.7,53.2,359.4,53.7z M382,152
			c-6.6,0.5-13.3,0.4-19.9,0.6c-4.4,0.1-28.9,2-36.6-3c-0.2-1.3-0.5-2.7-0.7-4c-2.4-12.9,40-10.5,52.8-9.5c0.3,0.2,0.7,0.3,1.1,0.3
			c4.3,0,8.6,0,12.9,0c1.9,0,5.1-0.5,6.1,1.5c-0.2,1.4-0.4,2.8-0.6,4.2c-0.1,0.7,0.1,1.3,0.4,1.8c-0.2,1-0.4,2-0.6,3
			C392.9,150.4,387.4,151.5,382,152z M322.2,88c1.3-7.6,4.7-14.7,10-20.2c6.1-6.3,15.5-8.3,23.9-9.1c40.5-4,44.9,42,42,73.6
			c-0.6-0.2-1.2-0.4-1.8-0.5c-5.1-1-10.9-0.4-16.2-0.3c-0.1,0-0.2,0-0.3,0c-12.8-1.1-25.8-1.3-38.6,0c-4,0.4-12.4,1.4-17.6,4.5
			c-0.5-6.3-1.1-12.6-1.6-19C321.3,107.4,320.6,97.6,322.2,88z M386.4,188.1c-2.6,2.8-7.3,3.2-11,3.3c1.2-3.3,2.4-6.6,3.7-9.9
			c0.6-1.7-2.1-2.5-2.8-0.8c-0.8,2.2-1.6,4.4-2.4,6.6c-0.4,1.1-0.7,2.8-1.4,4.2c-9.3,0.2-18.8-0.2-28-1.6c-3.5-0.5-6.9-1.6-9.7-3.8
			c-3.6-2.9-4.1-8.4-4.9-12.7c-1.2-6.6-2.4-13.3-3.7-19.9c9.2,3.5,25.8,2.3,30.2,2.2c8.5-0.2,17-0.1,25.5-0.8c0,0,0,0,0,0
			c2.5,0-3.2,15.2-3.8,16.4c-0.8,1.7,1.7,3.1,2.5,1.5c1.2-2.5,6-13.2,4.6-18.1c3.9-0.4,7.6-1.6,10.8-3.6c-1.4,8.2-3.1,16.3-5,24.3
			C390.1,179.6,389.5,184.7,386.4,188.1z"/>
	</g>
</g>
</svg>
